<svg width="33" height="33" viewBox="0 0 33 33" fill="none" xmlns="http://www.w3.org/2000/svg">
<path d="M6.6604 13.7189L7.40631 13.7972L6.6604 13.7189ZM6.59814 14.2821L5.8542 14.187L6.59814 14.2821ZM4.24606 20.1483L4.86072 20.578L4.24606 20.1483ZM4.57287 19.6754L3.9489 19.2593L4.57287 19.6754ZM26.3396 13.7189L25.5937 13.7972L26.3396 13.7189ZM26.4018 14.2821L27.1458 14.187L26.4018 14.2821ZM28.7539 20.1483L29.3686 19.7185L28.7539 20.1483ZM28.4271 19.6754L29.0511 19.2593L28.4271 19.6754ZM1.29725 26.2921L1.89092 25.8338L1.29725 26.2921ZM2.78115 22.2435L3.39581 22.6732L2.78115 22.2435ZM1.06822 25.8841L0.367306 26.1509H0.367306L1.06822 25.8841ZM31.7027 26.2921L31.1091 25.8338L31.7027 26.2921ZM30.2188 22.2435L29.6042 22.6732L30.2188 22.2435ZM31.9318 25.8841L32.6327 26.1509L31.9318 25.8841ZM25.852 9.06994L26.5979 8.99171L25.852 9.06994ZM7.14797 9.06994L6.40206 8.99171V8.99171L7.14797 9.06994ZM13.7122 30.6572C13.4027 30.3819 12.9286 30.4096 12.6533 30.7191C12.378 31.0286 12.4057 31.5026 12.7152 31.7779L13.7122 30.6572ZM20.2848 31.7779C20.5943 31.5026 20.622 31.0286 20.3467 30.7191C20.0714 30.4096 19.5973 30.3819 19.2878 30.6572L20.2848 31.7779ZM27.5757 26.2026H5.42429V27.7026H27.5757V26.2026ZM25.1061 9.14816L25.5937 13.7972L27.0855 13.6407L26.5979 8.99171L25.1061 9.14816ZM7.40631 13.7972L7.89388 9.14817L6.40206 8.99171L5.91449 13.6407L7.40631 13.7972ZM3.39581 22.6732L4.86072 20.578L3.6314 19.7185L2.16649 21.8137L3.39581 22.6732ZM28.1393 20.578L29.6042 22.6732L30.8335 21.8137L29.3686 19.7185L28.1393 20.578ZM5.91449 13.6407C5.8845 13.9266 5.87066 14.0583 5.8542 14.187L7.34209 14.3772C7.3612 14.2277 7.377 14.0766 7.40631 13.7972L5.91449 13.6407ZM4.86072 20.578C5.0242 20.3442 5.11233 20.2182 5.19684 20.0915L3.9489 19.2593C3.87565 19.3691 3.7985 19.4795 3.6314 19.7185L4.86072 20.578ZM5.8542 14.187C5.62379 15.9898 4.9736 17.7228 3.9489 19.2593L5.19684 20.0915C6.3482 18.3651 7.08192 16.4128 7.34209 14.3772L5.8542 14.187ZM25.5937 13.7972C25.623 14.0766 25.6388 14.2277 25.6579 14.3772L27.1458 14.187C27.1293 14.0583 27.1155 13.9266 27.0855 13.6407L25.5937 13.7972ZM29.3686 19.7185C29.2015 19.4795 29.1243 19.3691 29.0511 19.2593L27.8032 20.0915C27.8877 20.2182 27.9758 20.3442 28.1393 20.578L29.3686 19.7185ZM25.6579 14.3772C25.9181 16.4128 26.6518 18.3651 27.8032 20.0915L29.0511 19.2593C28.0264 17.7228 27.3762 15.9898 27.1458 14.187L25.6579 14.3772ZM5.42429 26.2026C4.19767 26.2026 3.34931 26.2012 2.73987 26.1257C2.12089 26.0491 1.95445 25.9161 1.89092 25.8338L0.703578 26.7504C1.14993 27.3286 1.84129 27.5259 2.5555 27.6144C3.27926 27.704 4.23948 27.7026 5.42429 27.7026V26.2026ZM2.16649 21.8137C1.51062 22.7518 0.973231 23.5176 0.647074 24.1471C0.32365 24.7714 0.102324 25.455 0.367306 26.1509L1.76913 25.6172C1.74061 25.5423 1.70693 25.3622 1.97894 24.8371C2.24822 24.3174 2.71405 23.6483 3.39581 22.6732L2.16649 21.8137ZM1.89092 25.8338C1.83893 25.7665 1.79816 25.6934 1.76913 25.6172L0.367306 26.1509C0.449274 26.3662 0.562757 26.568 0.703578 26.7504L1.89092 25.8338ZM27.5757 27.7026C28.7605 27.7026 29.7207 27.704 30.4445 27.6144C31.1587 27.5259 31.8501 27.3286 32.2964 26.7504L31.1091 25.8338C31.0455 25.9161 30.8791 26.0491 30.2601 26.1257C29.6507 26.2012 28.8023 26.2026 27.5757 26.2026V27.7026ZM29.6042 22.6732C30.2859 23.6483 30.7518 24.3174 31.0211 24.8371C31.2931 25.3622 31.2594 25.5423 31.2309 25.6172L32.6327 26.1509C32.8977 25.455 32.6763 24.7714 32.3529 24.1471C32.0268 23.5176 31.4894 22.7518 30.8335 21.8137L29.6042 22.6732ZM32.2964 26.7504C32.4372 26.568 32.5507 26.3662 32.6327 26.1509L31.2309 25.6172C31.2018 25.6934 31.1611 25.7665 31.1091 25.8338L32.2964 26.7504ZM16.5 1.75C20.9735 1.75 24.6686 4.97684 25.1061 9.14817L26.5979 8.99171C26.0745 4.00061 21.6836 0.25 16.5 0.25V1.75ZM16.5 0.25C11.3164 0.25 6.92551 4.00061 6.40206 8.99171L7.89388 9.14817C8.33136 4.97684 12.0265 1.75 16.5 1.75V0.25ZM12.7152 31.7779C12.9179 31.9583 13.1785 32.0788 13.4191 32.1647C13.6733 32.2553 13.9701 32.3296 14.2939 32.3889L14.5638 30.9134C14.2934 30.8639 14.0795 30.8077 13.9231 30.7519C13.7531 30.6912 13.7033 30.6493 13.7122 30.6572L12.7152 31.7779ZM14.2939 32.3889C14.9417 32.5074 15.7161 32.5687 16.5 32.5687V31.0687C15.786 31.0687 15.1044 31.0122 14.5638 30.9134L14.2939 32.3889ZM16.5 32.5687C17.2839 32.5687 18.0583 32.5074 18.7061 32.3889L18.4362 30.9134C17.8956 31.0122 17.214 31.0687 16.5 31.0687V32.5687ZM18.7061 32.3889C19.0299 32.3296 19.3267 32.2553 19.5809 32.1647C19.8215 32.0788 20.0821 31.9583 20.2848 31.7779L19.2878 30.6572C19.2967 30.6493 19.2469 30.6912 19.0769 30.7519C18.9204 30.8077 18.7066 30.8639 18.4362 30.9134L18.7061 32.3889Z" fill="black"/>
</svg>
