<svg width="39" height="30" viewBox="0 0 39 30" fill="none" xmlns="http://www.w3.org/2000/svg">
<path d="M37.0879 3.4H1.48352C0.672527 3.4 0 2.62933 0 1.7C0 0.770666 0.672527 0 1.48352 0H37.0879C37.8989 0 38.5714 0.770666 38.5714 1.7C38.5714 2.62933 37.8989 3.4 37.0879 3.4Z" fill="black"/>
<path d="M37.0879 16.9333H1.48352C0.672527 16.9333 0 16.1627 0 15.2333C0 14.304 0.672527 13.5333 1.48352 13.5333H37.0879C37.8989 13.5333 38.5714 14.304 38.5714 15.2333C38.5714 16.1627 37.8989 16.9333 37.0879 16.9333Z" fill="black"/>
<path d="M37.0879 30H1.48352C0.672527 30 0 29.2293 0 28.3C0 27.3707 0.672527 26.6 1.48352 26.6H37.0879C37.8989 26.6 38.5714 27.3707 38.5714 28.3C38.5714 29.2293 37.8989 30 37.0879 30Z" fill="black"/>
</svg>
