<svg width="201" height="198" viewBox="0 0 201 198" fill="none" xmlns="http://www.w3.org/2000/svg">
<g clip-path="url(#clip0_111_1246)">
<g clip-path="url(#clip1_111_1246)">
<path d="M105.975 91.8897C105.975 91.8897 94.9906 147.195 59.5767 182.649L69.077 187.309C69.077 187.309 102.81 134.844 105.975 91.8897Z" fill="#E5697C"/>
<path d="M158.069 68.2584C160.156 63.2512 160.993 55.6488 157.758 49.5904C154.523 43.5319 146.195 36.6896 133.584 42.2555C120.973 47.8214 118.996 66.0059 117.118 76.3515C115.519 85.1623 108.146 90.5632 105.982 91.9755C105.019 89.7414 101.776 81.048 105.4 72.7325C109.602 63.0922 118.087 46.8824 110.708 35.2511C103.329 23.6198 92.5966 24.6789 86.5337 27.9162C83.5023 29.5349 81.1 32.04 79.3272 34.8046C77.6707 37.3899 76.5025 40.2568 75.8807 43.2628C70.8816 41.1672 63.2737 40.3362 57.2108 43.5736C51.148 46.8109 44.2979 55.1401 49.8584 67.7426C55.419 80.3451 73.6097 82.3106 83.9583 84.1813C92.8844 85.7956 98.3044 93.3267 99.6252 95.3699C97.26 96.3758 88.6701 99.4988 80.447 95.9325C70.8053 91.7379 54.5941 83.2653 42.9537 90.6487C31.3133 98.0322 32.3663 108.759 35.6013 114.818C37.2188 117.847 39.7248 120.242 42.4911 122.016C45.0765 123.67 47.9438 124.836 50.9507 125.456C48.8668 130.461 48.0279 138.068 51.2629 144.127C54.4979 150.185 62.8263 157.027 75.4372 151.462C88.0481 145.896 90.0254 127.711 91.9031 117.365C93.5018 108.555 100.875 103.154 103.039 101.742C104.002 103.976 107.246 112.669 103.622 120.985C99.4194 130.625 90.9337 146.835 98.3131 158.466C105.692 170.097 116.425 169.038 122.487 165.801C125.519 164.182 127.921 161.677 129.712 158.903C131.369 156.317 132.537 153.451 133.159 150.445C138.167 152.528 145.772 153.36 151.834 150.123C157.897 146.885 164.747 138.556 159.187 125.954C153.626 113.351 135.435 111.386 125.087 109.515C116.161 107.901 110.741 100.37 109.42 98.3266C111.785 97.3206 120.375 94.1976 128.598 97.7639C138.24 101.959 154.451 110.431 166.091 103.048C177.732 95.6642 176.679 84.9371 173.444 78.8787C171.826 75.8494 169.322 73.4496 166.557 71.6792C163.962 70.028 161.085 68.8684 158.069 68.2584Z" fill="#E5697C"/>
</g>
</g>
<defs>
<clipPath id="clip0_111_1246">
<rect width="201" height="198" fill="white"/>
</clipPath>
<clipPath id="clip1_111_1246">
<rect width="151" height="142" fill="white" transform="translate(0.457298 71.9314) rotate(-28.1006)"/>
</clipPath>
</defs>
</svg>
